<?xml version="1.0"?>
<svg xmlns="http://www.w3.org/2000/svg" xmlns:xlink="http://www.w3.org/1999/xlink" xmlns:svgjs="http://svgjs.com/svgjs" version="1.1" width="512" height="512" x="0" y="0" viewBox="0 0 477.381 477.382" style="enable-background:new 0 0 512 512" xml:space="preserve" class=""><g>
<g xmlns="http://www.w3.org/2000/svg">
	<g>
		<path d="M477.381,103.373c0-54.988-44.577-99.564-99.565-99.564c-53.146,0-96.562,41.64-99.413,94.074    c-13.35-2.513-27.168-3.838-41.322-3.838c-113.595,0-205.681,84.96-205.681,189.764c0,28.472,6.81,55.472,18.986,79.71    L1.735,451.491c-2.703,4.889-2.215,10.917,1.239,15.308c2.673,3.397,6.721,5.3,10.911,5.3c1.223,0,2.457-0.163,3.674-0.498    l106.506-29.233c32.435,19.721,71.269,31.206,113.016,31.206c113.594,0,205.681-84.96,205.681-189.764    c0-32.378-8.8-62.854-24.3-89.521C453.186,178.737,477.381,143.881,477.381,103.373z M377.816,177.937    c-41.115,0-74.565-33.449-74.565-74.564c0-41.115,33.45-74.564,74.565-74.564s74.565,33.449,74.565,74.564    C452.381,144.487,418.931,177.937,377.816,177.937z" fill="#e8e8e8" data-original="#000000" style=""/>
		<path d="M419.955,92.871h-31.636V61.233c0-5.801-4.703-10.503-10.503-10.503c-5.799,0-10.502,4.702-10.502,10.503V92.87h-31.636    c-5.802,0-10.503,4.702-10.503,10.503c0,5.8,4.701,10.502,10.503,10.502h31.636v31.636c0,5.801,4.703,10.503,10.502,10.503    c5.801,0,10.503-4.702,10.503-10.503v-31.636h31.636c5.802,0,10.503-4.702,10.503-10.502    C430.458,97.572,425.755,92.871,419.955,92.871z" fill="#e8e8e8" data-original="#000000" style=""/>
	</g>
</g>
<g xmlns="http://www.w3.org/2000/svg">
</g>
<g xmlns="http://www.w3.org/2000/svg">
</g>
<g xmlns="http://www.w3.org/2000/svg">
</g>
<g xmlns="http://www.w3.org/2000/svg">
</g>
<g xmlns="http://www.w3.org/2000/svg">
</g>
<g xmlns="http://www.w3.org/2000/svg">
</g>
<g xmlns="http://www.w3.org/2000/svg">
</g>
<g xmlns="http://www.w3.org/2000/svg">
</g>
<g xmlns="http://www.w3.org/2000/svg">
</g>
<g xmlns="http://www.w3.org/2000/svg">
</g>
<g xmlns="http://www.w3.org/2000/svg">
</g>
<g xmlns="http://www.w3.org/2000/svg">
</g>
<g xmlns="http://www.w3.org/2000/svg">
</g>
<g xmlns="http://www.w3.org/2000/svg">
</g>
<g xmlns="http://www.w3.org/2000/svg">
</g>
</g></svg>
