<?xml version="1.0"?>
<svg xmlns="http://www.w3.org/2000/svg" xmlns:xlink="http://www.w3.org/1999/xlink" xmlns:svgjs="http://svgjs.com/svgjs" version="1.1" width="512" height="512" x="0" y="0" viewBox="0 0 327.682 327.682" style="enable-background:new 0 0 512 512" xml:space="preserve" class=""><g>
<path xmlns="http://www.w3.org/2000/svg" style="" d="M125.607,239.876c5.466,5.257,5.466,13.766,0,19.014c-5.466,5.25-14.331,5.25-19.796,0L6.827,163.841  l98.983-95.049c5.466-5.25,14.329-5.25,19.796,0c5.466,5.25,5.466,13.757,0,19.007L46.42,163.841L125.607,239.876z" fill="#b3b1b1" data-original="#9bfc1d" class=""/>
<!-- <path xmlns="http://www.w3.org/2000/svg" d="M115.707,269.625c-5.299,0-10.593-1.937-14.626-5.811L2.099,168.764C0.759,167.478,0,165.699,0,163.841  c0-1.859,0.759-3.637,2.099-4.924l98.987-95.049c8.054-7.747,21.18-7.748,29.247-0.002c4,3.84,6.2,8.965,6.2,14.43  s-2.2,10.588-6.2,14.426l-74.059,71.118l74.061,71.11c0,0.002,0.007,0.003,0.007,0.005c3.994,3.842,6.193,8.97,6.193,14.437  c0,5.463-2.2,10.585-6.2,14.421C126.3,267.688,121.006,269.625,115.707,269.625z M16.679,163.841l93.86,90.127  c2.807,2.695,7.547,2.686,10.341-0.002c1.287-1.239,2-2.865,2-4.579c0-1.717-0.713-3.347-2.007-4.591l-79.179-76.03  c-1.34-1.289-2.099-3.067-2.099-4.925c0-1.859,0.759-3.637,2.099-4.924l79.186-76.044c1.287-1.241,2-2.865,2-4.579  c0-1.715-0.713-3.342-2-4.582c-2.807-2.685-7.54-2.697-10.334-0.002L16.679,163.841z" fill="#00000000" data-original="#000000" style="" class=""/> -->
<!-- <path xmlns="http://www.w3.org/2000/svg" style="" d="M221.179,239.876c5.466,5.257,5.466,13.766,0,19.014c-5.466,5.25-14.329,5.25-19.796,0L102.4,163.841  l98.983-95.049c5.466-5.25,14.329-5.25,19.796,0c5.466,5.25,5.466,13.757,0,19.007l-79.186,76.042L221.179,239.876z" fill="#b3b1b1" data-original="#26bbec" class=""/> -->
<!-- <path xmlns="http://www.w3.org/2000/svg" d="M211.28,269.623c-5.299,0-10.593-1.935-14.626-5.806l-98.98-95.051c-1.34-1.287-2.099-3.065-2.099-4.924  c0-1.859,0.759-3.637,2.099-4.924l98.98-95.049c8.067-7.747,21.187-7.745,29.254-0.002c4,3.84,6.2,8.965,6.2,14.43  s-2.2,10.588-6.2,14.426l-74.061,71.117l74.061,71.11c0,0.002,0.007,0.003,0.007,0.005c3.994,3.842,6.193,8.97,6.193,14.437  c0,5.463-2.2,10.585-6.2,14.421C221.873,267.688,216.579,269.623,211.28,269.623z M112.253,163.841l93.853,90.127  c2.801,2.69,7.547,2.691,10.346-0.002c1.287-1.239,2-2.865,2-4.579c0-1.717-0.713-3.347-2.007-4.591l-79.181-76.03  c-1.34-1.289-2.099-3.067-2.099-4.925s0.759-3.637,2.099-4.924l79.186-76.044c1.287-1.241,2-2.865,2-4.579  c0-1.715-0.713-3.342-2-4.582c-2.801-2.69-7.547-2.691-10.346,0.002L112.253,163.841z" fill="#00000000" data-original="#000000" style="" class=""/> -->
<!-- <path xmlns="http://www.w3.org/2000/svg" style="" d="M316.752,239.876c5.466,5.257,5.466,13.766,0,19.014c-5.466,5.25-14.329,5.25-19.796,0  l-98.983-95.049l98.983-95.049c5.466-5.25,14.331-5.25,19.796,0c5.466,5.25,5.466,13.757,0,19.007l-79.186,76.042L316.752,239.876z" fill="#b3b1b1" data-original="#288eea" class=""/> -->
<path xmlns="http://www.w3.org/2000/svg" d="M306.854,269.622c-5.294,0-10.593-1.935-14.626-5.803l-98.98-95.053c-1.34-1.287-2.099-3.065-2.099-4.924  c0-1.859,0.759-3.637,2.099-4.924l98.98-95.049c8.061-7.735,21.193-7.743,29.254-0.002c4,3.84,6.2,8.965,6.2,14.43  s-2.2,10.588-6.2,14.426l-74.061,71.117l74.061,71.11c0,0.002,0.007,0.003,0.007,0.005c3.994,3.842,6.193,8.97,6.193,14.437  c0,5.463-2.2,10.585-6.2,14.421C317.454,267.684,312.153,269.622,306.854,269.622z M207.826,163.841l93.853,90.127  c2.854,2.734,7.494,2.736,10.346-0.002c1.287-1.239,2-2.865,2-4.579c0-1.717-0.713-3.347-2.007-4.591l-79.181-76.03  c-1.34-1.289-2.099-3.067-2.099-4.925s0.759-3.637,2.099-4.924l79.186-76.044c1.287-1.241,2-2.865,2-4.579  c0-1.715-0.713-3.342-2-4.582c-2.854-2.734-7.494-2.734-10.346,0.003L207.826,163.841z" fill="#00000000" data-original="#000000" style="" class=""/>
<g xmlns="http://www.w3.org/2000/svg">
</g>
<g xmlns="http://www.w3.org/2000/svg">
</g>
<g xmlns="http://www.w3.org/2000/svg">
</g>
<g xmlns="http://www.w3.org/2000/svg">
</g>
<g xmlns="http://www.w3.org/2000/svg">
</g>
<g xmlns="http://www.w3.org/2000/svg">
</g>
<g xmlns="http://www.w3.org/2000/svg">
</g>
<g xmlns="http://www.w3.org/2000/svg">
</g>
<g xmlns="http://www.w3.org/2000/svg">
</g>
<g xmlns="http://www.w3.org/2000/svg">
</g>
<g xmlns="http://www.w3.org/2000/svg">
</g>
<g xmlns="http://www.w3.org/2000/svg">
</g>
<g xmlns="http://www.w3.org/2000/svg">
</g>
<g xmlns="http://www.w3.org/2000/svg">
</g>
<g xmlns="http://www.w3.org/2000/svg">
</g>
</g></svg>
