<?xml version="1.0"?>
<svg xmlns="http://www.w3.org/2000/svg" xmlns:xlink="http://www.w3.org/1999/xlink" xmlns:svgjs="http://svgjs.com/svgjs" version="1.1" width="512" height="512" x="0" y="0" viewBox="0 0 472.615 472.615" style="enable-background:new 0 0 512 512" xml:space="preserve"><g>
<g xmlns="http://www.w3.org/2000/svg">
	<g>
		<path d="M236.308,0c-13.153,0-23.817,10.663-23.817,23.817v82.961c0,13.154,10.663,23.817,23.817,23.817    c13.154,0,23.817-10.662,23.817-23.817V23.817C260.125,10.664,249.461,0,236.308,0z" fill="#34c759" data-original="#000000" style=""/>
	</g>
</g>
<g xmlns="http://www.w3.org/2000/svg">
	<g>
		<path d="M161.558,127.875l-58.662-58.662c-9.301-9.301-24.381-9.301-33.683,0c-9.301,9.301-9.301,24.381,0,33.682l58.663,58.663    c9.301,9.302,24.381,9.302,33.682,0C170.859,152.256,170.859,137.176,161.558,127.875z" fill="#34c759" data-original="#000000" style=""/>
	</g>
</g>
<g xmlns="http://www.w3.org/2000/svg">
	<g>
		<path d="M106.779,212.491H23.817C10.663,212.491,0,223.154,0,236.308c0,13.154,10.663,23.817,23.817,23.817h82.962    c13.154,0,23.817-10.663,23.817-23.817C130.595,223.154,119.932,212.491,106.779,212.491z" fill="#34c759" data-original="#000000" style=""/>
	</g>
</g>
<g xmlns="http://www.w3.org/2000/svg">
	<g>
		<path d="M161.558,311.057c-9.301-9.302-24.381-9.302-33.682,0l-58.663,58.663c-9.301,9.301-9.301,24.381,0,33.682    c9.302,9.301,24.382,9.301,33.683,0l58.662-58.662C170.859,335.439,170.859,320.359,161.558,311.057z" fill="#34c759" data-original="#000000" style=""/>
	</g>
</g>
<g xmlns="http://www.w3.org/2000/svg">
	<g>
		<path d="M236.308,342.02c-13.153,0-23.817,10.663-23.817,23.817v82.961c0,13.154,10.663,23.817,23.817,23.817    c13.154,0,23.817-10.663,23.817-23.817v-82.961C260.125,352.684,249.461,342.02,236.308,342.02z" fill="#34c759" data-original="#000000" style=""/>
	</g>
</g>
<g xmlns="http://www.w3.org/2000/svg">
	<g>
		<path d="M403.402,369.721l-58.662-58.663c-9.302-9.302-24.381-9.302-33.683,0c-9.301,9.302-9.301,24.382,0,33.683l58.663,58.662    c9.301,9.301,24.381,9.301,33.682,0S412.703,379.021,403.402,369.721z" fill="#34c759" data-original="#000000" style=""/>
	</g>
</g>
<g xmlns="http://www.w3.org/2000/svg">
	<g>
		<path d="M448.799,212.491h-82.962c-13.154,0-23.818,10.662-23.818,23.817c0,13.154,10.663,23.817,23.818,23.817h82.962    c13.154,0,23.817-10.663,23.817-23.817C472.615,223.154,461.952,212.491,448.799,212.491z" fill="#34c759" data-original="#000000" style=""/>
	</g>
</g>
<g xmlns="http://www.w3.org/2000/svg">
	<g>
		<path d="M403.402,69.213c-9.301-9.301-24.381-9.301-33.682,0l-58.663,58.662c-9.301,9.301-9.301,24.381,0,33.683    c9.302,9.302,24.381,9.302,33.683,0l58.662-58.663C412.703,93.594,412.703,78.514,403.402,69.213z" fill="#34c759" data-original="#000000" style=""/>
	</g>
</g>
<g xmlns="http://www.w3.org/2000/svg">
</g>
<g xmlns="http://www.w3.org/2000/svg">
</g>
<g xmlns="http://www.w3.org/2000/svg">
</g>
<g xmlns="http://www.w3.org/2000/svg">
</g>
<g xmlns="http://www.w3.org/2000/svg">
</g>
<g xmlns="http://www.w3.org/2000/svg">
</g>
<g xmlns="http://www.w3.org/2000/svg">
</g>
<g xmlns="http://www.w3.org/2000/svg">
</g>
<g xmlns="http://www.w3.org/2000/svg">
</g>
<g xmlns="http://www.w3.org/2000/svg">
</g>
<g xmlns="http://www.w3.org/2000/svg">
</g>
<g xmlns="http://www.w3.org/2000/svg">
</g>
<g xmlns="http://www.w3.org/2000/svg">
</g>
<g xmlns="http://www.w3.org/2000/svg">
</g>
<g xmlns="http://www.w3.org/2000/svg">
</g>
</g></svg>
